<svg width="301" height="324" viewBox="0 0 301 324" fill="none" xmlns="http://www.w3.org/2000/svg">
<path d="M42.0294 155C-14.3706 115 2.5294 55 18.0294 30C29.6295 58.8 54.196 74.3333 65.0293 78.5L220.529 146.5C236.929 152.9 256.363 166.833 264.029 173C314.029 210.6 297.529 269 283.029 293.5C273.829 267.9 250.196 252.167 239.529 247.5L111.029 190.5C77.4293 178.1 51.0294 161.667 42.0294 155Z" fill="black" stroke="white" stroke-width="5"/>
<path d="M294.81 106.748L206.164 55.4214L295.088 4.57791L294.81 106.748Z" fill="black" stroke="white" stroke-width="5"/>
<path d="M5.6716 217.393L94.4887 268.424L5.73453 319.564L5.6716 217.393Z" fill="black" stroke="white" stroke-width="5"/>
</svg>
