<svg width="297" height="324" viewBox="0 0 297 324" fill="none" xmlns="http://www.w3.org/2000/svg">
<path d="M40.0294 155C-16.3706 115 0.529399 55 16.0294 30C27.6295 58.8 52.196 74.3333 63.0293 78.5L218.529 146.5C234.929 152.9 254.363 166.833 262.029 173C312.029 210.6 295.529 269 281.029 293.5C271.829 267.9 248.196 252.167 237.529 247.5L109.029 190.5C75.4293 178.1 49.0294 161.667 40.0294 155Z" fill="white" stroke="white"/>
<path d="M199.151 55.4078L295.6 0.261997L295.298 111.078L199.151 55.4078Z" fill="white"/>
<path d="M97.5015 268.421L1.2372 323.888L1.20307 268.48L1.16893 213.072L97.5015 268.421Z" fill="white"/>
</svg>
